/* XPM */
static char*close[]={
"16 16 3 1",
"a c #000080",
"# c #c0c0c0",
". c None",
"................",
"................",
"....#aaa........",
".......#a.......",
".......#a.......",
"......#a........",
".......#aa......",
".......#aa......",
"......#a........",
".......#a.......",
".......#a.......",
"....#aaa........",
"................",
"................",
"................",
"................"};
