/* XPM */
static char*justify[]={
"16 16 3 1",
"# c #000080",
"a c #800000",
". c None",
"................",
"..##.aaaaaa.##..",
"................",
"..###.###.aaaa..",
"................",
"..aaaaa.###.##..",
"................",
"..##.aaaa.####..",
"................",
"..aaaa.####.##..",
"................",
"..#####.aaaaaa..",
"................",
"..aaa.####.###..",
"................",
"................"};
