/* XPM */
static char *toolbar_region[] = {
/* width height num_colors chars_per_pixel */
"    16    15        3            1",
/* colors */
". c #000000",
"# c #000080",
"a c #c0c0c0",
/* pixels */
"aaaaaaa.aaaaaaaa",
"aaaaaaaaaaaaaaaa",
"aa....a.........",
"aaaaaaaaaaaaaaaa",
"aa#aaaa........a",
"aa##aaa........a",
"#####aaaaaaaaaaa",
"aa##aaa......aaa",
"aa#aaaa......aaa",
"aaaaaaaaaaaaaaaa",
"aa....a.........",
"aaaaaaaaaaaaaaaa",
"aa....a..aaaaaaa",
"aaaaaaaaaaaaaaaa",
"aaaaaaa.aaaaaaaa"
};
