/* XPM */
static char *toolbar_search[] = {
/* width height num_colors chars_per_pixel */
"    16    15        6            1",
/* colors */
". c #000000",
"# c #000080",
"a c #c0c0c0",
"b c #808080",
"c c #ffff00",
"d c #ffffff",
/* pixels */
"abccccaaaaaaaaaa",
"bccabccaaaaaaaaa",
"bccabccaaaaaaaaa",
"bbabccaaaaaaaaaa",
"aaaccaaaaaaaaaaa",
"aaaccaaaaaaaaaaa",
"aaabbaa..aaa..aa",
"aabccaa..aaa..aa",
"aabcca...bab...a",
"aabbb.d.....d...",
"aaaaa.d...b.d...",
"aaaaa...........",
"aaaaa.d..aaa.d..",
"aaaaa.d..aaa.d..",
"aaaaa....aaa...."
};
