/* XPM */
static char *toolbar_build[] = {
/* width height num_colors chars_per_pixel */
"    16    15        3            1",
/* colors */
". c #000000",
"# c #000080",
"a c #c0c0c0",
/* pixels */
"aaaa.....aaaaaaa",
"aaaa.###.aaaaaaa",
"aaaa.###.aaaaaaa",
"aaaa.###.aaaaaaa",
"aaaa.###.aaaaaaa",
"aaaa.###.aaaaaaa",
"aaaa.###.aaaaaaa",
"aaaa.###.aaaaaaa",
".....###.....aaa",
"a.#########.aaaa",
"aa.#######.aaaaa",
"aaa.#####.aaaaaa",
"aaaa.###.aaaaaaa",
"aaaaa.#.aaaaaaaa",
"aaaaaa.aaaaaaaaa"
};
