/* XPM */
static char *toolbar_edit[] = {
/* width height num_colors chars_per_pixel */
"    16    15        6            1",
/* colors */
". c #000000",
"# c #800000",
"a c #808000",
"b c #000080",
"c c #c0c0c0",
"d c #ffffff",
/* pixels */
"c......ccccccccc",
"c.cccc..cccccccc",
"c.cccc.c.ccccccc",
"c.c..c.bbbbbbccc",
"c.cccccbccccbbcc",
"c.c....bccccbcbc",
"c.cccccbc..cbbbb",
"c.c....bcccccccb",
"c.cccccbc.....cb",
"c......bcccccccb",
"cccccccbc.....cb",
"cccccccbcccccccb",
"cccccccbbbbbbbbb",
"cccccccccccccccc",
"cccccccccccccccc"
};
