/* XPM */
static char *toolbar_macro[] = {
/* width height num_colors chars_per_pixel */
"    16    15        3            1",
/* colors */
". c #000080",
"# c #c0c0c0",
"a c #ff0000",
/* pixels */
"################",
"################",
"##............##",
"##............##",
"##............##",
"##............##",
"##............##",
"##............##",
"##............##",
"##............##",
"##............##",
"##............##",
"##............##",
"################",
"################"
};
