/* XPM */
static char*stop[]={
"16 16 3 1",
"a c #ffc0c0",
"# c #800000",
". c None",
"................",
".......#........",
".....##a##......",
"....#a#a#a#.....",
"....#a#a#a##....",
"....#a#a#a#a#...",
"....#a#a#a#a#...",
"....#aaaaa#a#...",
".##.#aaaaaaa#...",
".#.#aaaaaaaa#...",
"..#aaaaaaaaa#...",
"...#aaaaaaa#....",
"....#aaaaaa#....",
"...###########..",
"................",
"................"};
