/* XPM */
static char*synchronise[]={
"16 16 5 1",
"b c #000080",
"a c #c0c0c0",
"# c #800000",
". c None",
"c c #c0ffff",
"....##..aa......",
"....##..aa......",
".bbb##bbb.......",
".bcc##ccbb.aa...",
".bcc##ccbcb.a...",
".bcc##ccbccb....",
".bcc##ccbbbbb...",
".bcc##ccccccb...",
".bcc##ccccccb...",
".bccccccccccb...",
".bcc##ccccccb...",
".bcc##ccccccb...",
".bccccccccccb...",
".bccccccccccb...",
".bccccccccccb...",
".bbbbbbbbbbbb..."};
