/* XPM */
static char *toolbar_edit[] = {
/* width height num_colors chars_per_pixel */
"    16    15        6            1",
/* colors */
". c #000000",
"# c #800000",
"a c #808000",
"b c #000080",
"c c #c0c0c0",
"d c #ffffff",
/* pixels */
"cccccc.ccc.ccccc",
"cccccc.ccc.ccccc",
"cccccc.ccc.ccccc",
"cccccc..c..ccccc",
"ccccccc.c.cccccc",
"ccccccc...cccccc",
"cccccccc.ccccccc",
"cccccccbbbcccccc",
"cccccccbcbbbcccc",
"cccccbbbcbccbccc",
"ccccbccbcbccbccc",
"ccccbccbcbccbccc",
"ccccbccbccbbcccc",
"cccccbbccccccccc",
"cccccccccccccccc"
};
