/* XPM */
static char *toolbar_file[] = {
/* width height num_colors chars_per_pixel */
"    16    15        6            1",
/* colors */
". c #000000",
"# c #808000",
"a c #c0c0c0",
"b c #ff0000",
"c c #ffff00",
"d c #ffffff",
/* pixels */
"aaaaaaaaaa...aaa",
"aaaaaaaaa.aaa.a.",
"aaaaaaaaaaaaaa..",
"aa...aaaaaaaa...",
"a.ccc.......aaaa",
"a.ccccccccc.aaaa",
"a.ccccccccc.aaaa",
"a.cccc..........",
"a.ccc.#########.",
"a.cc.#########.a",
"a.c.##..#####.aa",
"a..#########.aaa",
"a...........aaaa",
"aaaaaaaaaaaaaaaa",
"aaaaaaaaaaaaaaaa"
};
